<svg width="24" height="25" viewBox="0 0 24 25" fill="none" xmlns="http://www.w3.org/2000/svg">
<path fill-rule="evenodd" clip-rule="evenodd" d="M4 12.3335C4 11.7812 4.44772 11.3335 5 11.3335H19C19.5523 11.3335 20 11.7812 20 12.3335C20 12.8858 19.5523 13.3335 19 13.3335H5C4.44772 13.3335 4 12.8858 4 12.3335Z" fill="white"/>
<path fill-rule="evenodd" clip-rule="evenodd" d="M12.7071 4.62639C13.0976 5.01691 13.0976 5.65008 12.7071 6.0406L6.41421 12.3335L12.7071 18.6264C13.0976 19.0169 13.0976 19.6501 12.7071 20.0406C12.3166 20.4311 11.6834 20.4311 11.2929 20.0406L4.29289 13.0406C3.90237 12.6501 3.90237 12.0169 4.29289 11.6264L11.2929 4.62639C11.6834 4.23586 12.3166 4.23586 12.7071 4.62639Z" fill="white"/>
</svg>
