<svg width="24" height="25" viewBox="0 0 24 25" fill="none" xmlns="http://www.w3.org/2000/svg">
<path fill-rule="evenodd" clip-rule="evenodd" d="M4 12.9502C4 12.3979 4.44772 11.9502 5 11.9502H19C19.5523 11.9502 20 12.3979 20 12.9502C20 13.5025 19.5523 13.9502 19 13.9502H5C4.44772 13.9502 4 13.5025 4 12.9502Z" fill="white"/>
<path fill-rule="evenodd" clip-rule="evenodd" d="M11.2929 5.24309C11.6834 4.85256 12.3166 4.85256 12.7071 5.24309L19.7071 12.2431C20.0976 12.6336 20.0976 13.2668 19.7071 13.6573L12.7071 20.6573C12.3166 21.0478 11.6834 21.0478 11.2929 20.6573C10.9024 20.2668 10.9024 19.6336 11.2929 19.2431L17.5858 12.9502L11.2929 6.6573C10.9024 6.26678 10.9024 5.63361 11.2929 5.24309Z" fill="white"/>
</svg>
